<?xml version="1.0" encoding="UTF-8"?>
<svg xmlns="http://www.w3.org/2000/svg" width="900" height="700" viewBox="0 0 900 700">
  <defs>
    <linearGradient id="bgGrad" x1="0" x2="1" y1="0" y2="1">
      <stop stop-color="#06101d"/>
      <stop offset=".55" stop-color="#020617"/>
      <stop offset="1" stop-color="#020811"/>
    </linearGradient>
    <linearGradient id="deviceGrad" x1="0" x2="1" y1="0" y2="1">
      <stop stop-color="#dbeafe"/>
      <stop offset="1" stop-color="#2563eb"/>
    </linearGradient>
    <filter id="shadow">
      <feDropShadow dx="0" dy="24" stdDeviation="18" flood-color="#000000" flood-opacity=".55"/>
    </filter>
  </defs>

  <rect width="900" height="700" fill="url(#bgGrad)"/>
  <circle cx="735" cy="95" r="190" fill="#ff7600" opacity=".14"/>
  <circle cx="155" cy="120" r="160" fill="#43a6ff" opacity=".12"/>

  <rect x="42" y="42" width="816" height="616" rx="38" fill="rgba(255,255,255,.045)" stroke="rgba(145,201,255,.18)"/>

  <text x="76" y="98" font-family="Arial, sans-serif" font-size="30" font-weight="900" fill="#ffffff">Sun-TEL</text>
  <text x="76" y="130" font-family="Arial, sans-serif" font-size="18" font-weight="700" fill="#ff9d2e">KI-Symbolbild · Hagen</text>

  
      <rect x="220" y="58" width="180" height="310" rx="32" fill="#07111f" filter="url(#shadow)"/>
      <rect x="236" y="78" width="148" height="270" rx="24" fill="url(#deviceGrad)"/>
      <circle cx="262" cy="108" r="15" fill="#020617"/>
      <circle cx="296" cy="108" r="12" fill="#020617"/>
      <circle cx="262" cy="142" r="12" fill="#020617"/>
      <rect x="275" y="86" width="70" height="8" rx="4" fill="#020617" opacity=".8"/>
      <text x="310" y="222" text-anchor="middle" font-size="24" font-weight="800" fill="white">Samsung</text>
    

  <rect x="75" y="475" width="750" height="125" rx="24" fill="rgba(2,8,17,.58)" stroke="rgba(145,201,255,.20)"/>
  <text x="105" y="525" font-family="Arial, sans-serif" font-size="34" font-weight="900" fill="#ffffff">Samsung Galaxy A56 5G</text>
  <text x="105" y="562" font-family="Arial, sans-serif" font-size="22" font-weight="700" fill="#a6b8c9">Samsung · Neue Smartphones</text>
  <text x="105" y="604" font-family="Arial, sans-serif" font-size="30" font-weight="900" fill="#ff9d2e">349 €</text>

  <text x="825" y="632" text-anchor="end" font-family="Arial, sans-serif" font-size="15" font-weight="700" fill="#8bffd4">Symbolbild</text>
</svg>